<svg xmlns="http://www.w3.org/2000/svg" width="56.987" height="56.987" viewBox="0 0 56.987 56.987">
  <path id="Icon_zocial-itunes" data-name="Icon zocial-itunes" d="M0,28.494a27.912,27.912,0,0,1,3.818-14.3A28.291,28.291,0,0,1,14.19,3.818,27.912,27.912,0,0,1,28.494,0,27.912,27.912,0,0,1,42.8,3.818,28.291,28.291,0,0,1,53.169,14.19a27.912,27.912,0,0,1,3.818,14.3,27.912,27.912,0,0,1-3.818,14.3A28.291,28.291,0,0,1,42.8,53.169a27.912,27.912,0,0,1-14.3,3.818,27.912,27.912,0,0,1-14.3-3.818A28.291,28.291,0,0,1,3.818,42.8,27.912,27.912,0,0,1,0,28.494Zm5.7,0a21.969,21.969,0,0,0,6.668,16.127,21.969,21.969,0,0,0,16.127,6.668,21.969,21.969,0,0,0,16.127-6.668,21.969,21.969,0,0,0,6.668-16.127,21.969,21.969,0,0,0-6.668-16.127A21.969,21.969,0,0,0,28.494,5.7a21.969,21.969,0,0,0-16.127,6.668A21.969,21.969,0,0,0,5.7,28.494Zm10.429,10.03a4.184,4.184,0,0,0,4.217,4.217,4.671,4.671,0,0,0,4.616-4.616V22.795l11.4-2.109V32.54a5.064,5.064,0,0,0-1.6-.285,4.671,4.671,0,0,0-4.616,4.616,4.12,4.12,0,0,0,1.2,2.992,3.977,3.977,0,0,0,2.963,1.225,4.5,4.5,0,0,0,3.163-1.311A4.293,4.293,0,0,0,38.922,36.7V14.247L22.4,17.1v17.1a5.063,5.063,0,0,0-1.6-.285A4.5,4.5,0,0,0,17.5,35.275a4.438,4.438,0,0,0-1.368,3.248Z" fill="#515151"/>
</svg>
