<svg xmlns="http://www.w3.org/2000/svg" width="50.489" height="50.489" viewBox="0 0 50.489 50.489">
  <g id="Icon_feather-instagram" data-name="Icon feather-instagram" transform="translate(1.5 1.5)">
    <path id="Path_1" data-name="Path 1" d="M14.872,3H38.617A11.872,11.872,0,0,1,50.489,14.872V38.617A11.872,11.872,0,0,1,38.617,50.489H14.872A11.872,11.872,0,0,1,3,38.617V14.872A11.872,11.872,0,0,1,14.872,3Z" transform="translate(-3 -3)" fill="none" stroke="#515151" stroke-linecap="round" stroke-linejoin="round" stroke-width="3"/>
    <path id="Path_2" data-name="Path 2" d="M30.958,20.04a9.5,9.5,0,1,1-8-8,9.5,9.5,0,0,1,8,8Z" transform="translate(2.285 2.209)" fill="none" stroke="#515151" stroke-linecap="round" stroke-linejoin="round" stroke-width="3"/>
    <path id="Path_3" data-name="Path 3" d="M26.25,9.75h0" transform="translate(10.554 0.935)" fill="none" stroke="#515151" stroke-linecap="round" stroke-linejoin="round" stroke-width="3"/>
  </g>
</svg>
