<svg xmlns="http://www.w3.org/2000/svg" width="55.206" height="55.206" viewBox="0 0 55.206 55.206">
  <path id="Icon_awesome-spotify" data-name="Icon awesome-spotify" d="M27.6.563a27.6,27.6,0,1,0,27.6,27.6A27.613,27.613,0,0,0,27.6.563ZM38.811,41.177a2.124,2.124,0,0,1-1.191-.4c-6.945-4.185-15.026-4.363-23.006-2.727a7.187,7.187,0,0,1-1.325.289,1.733,1.733,0,0,1-1.759-1.759,1.764,1.764,0,0,1,1.514-1.87c9.116-2.015,18.432-1.837,26.379,2.916a1.882,1.882,0,0,1,1.08,1.837,1.682,1.682,0,0,1-1.692,1.714Zm2.994-7.3a2.748,2.748,0,0,1-1.369-.467c-6.956-4.118-17.33-5.777-26.557-3.272a4.584,4.584,0,0,1-1.325.289A2.161,2.161,0,0,1,10.4,28.266a2.19,2.19,0,0,1,1.725-2.3,37.437,37.437,0,0,1,10.885-1.514,38.962,38.962,0,0,1,19.7,5.064,2.32,2.32,0,0,1,1.258,2.193,2.157,2.157,0,0,1-2.159,2.17Zm3.45-8.481a2.56,2.56,0,0,1-1.436-.434c-7.925-4.73-22.094-5.866-31.265-3.306a5.287,5.287,0,0,1-1.436.289,2.569,2.569,0,0,1-2.593-2.627,2.63,2.63,0,0,1,1.937-2.66,46.649,46.649,0,0,1,13.078-1.692c8.125,0,16.64,1.692,22.862,5.32A2.613,2.613,0,0,1,47.838,22.8a2.579,2.579,0,0,1-2.582,2.593Z" transform="translate(0 -0.563)" fill="#515151"/>
</svg>
