<svg xmlns="http://www.w3.org/2000/svg" width="60.786" height="42.74" viewBox="0 0 60.786 42.74">
  <path id="Icon_awesome-youtube" data-name="Icon awesome-youtube" d="M60.566,11.187a7.638,7.638,0,0,0-5.374-5.409C50.452,4.5,31.443,4.5,31.443,4.5S12.435,4.5,7.694,5.778A7.638,7.638,0,0,0,2.32,11.187C1.05,15.959,1.05,25.913,1.05,25.913s0,9.955,1.27,14.726a7.524,7.524,0,0,0,5.374,5.323c4.741,1.278,23.749,1.278,23.749,1.278s19.008,0,23.749-1.278a7.524,7.524,0,0,0,5.374-5.323c1.27-4.771,1.27-14.726,1.27-14.726s0-9.955-1.27-14.726ZM25.226,34.952V16.875l15.887,9.038L25.226,34.952Z" transform="translate(-1.05 -4.5)" fill="#515151"/>
</svg>
